<svg width="120" height="20" viewBox="0 0 120 20" fill="none" xmlns="http://www.w3.org/2000/svg">
<path d="M4.43757e-05 15.376V0.830522H5.73868C6.8419 0.830522 7.78177 1.04122 8.55828 1.46262C9.3348 1.87929 9.92665 2.45931 10.3339 3.20268C10.7458 3.94132 10.9517 4.79359 10.9517 5.7595C10.9517 6.72541 10.7434 7.57768 10.3267 8.31632C9.91008 9.05495 9.30639 9.63024 8.51567 10.0422C7.72968 10.4541 6.77798 10.6601 5.66056 10.6601H2.00289V8.19558H5.1634C5.75525 8.19558 6.24294 8.09378 6.62646 7.89018C7.01472 7.68185 7.30355 7.39539 7.49294 7.03081C7.68707 6.66149 7.78414 6.23772 7.78414 5.7595C7.78414 5.27654 7.68707 4.85514 7.49294 4.49529C7.30355 4.13071 7.01472 3.84899 6.62646 3.65012C6.23821 3.44653 5.74578 3.34473 5.14919 3.34473H3.07533V15.376H4.43757e-05ZM15.7103 15.5819C15.0142 15.5819 14.394 15.4612 13.8495 15.2197C13.305 14.9735 12.8741 14.6113 12.5569 14.1331C12.2444 13.6501 12.0881 13.0488 12.0881 12.3291C12.0881 11.723 12.1994 11.214 12.4219 10.8021C12.6445 10.3902 12.9475 10.0587 13.331 9.80779C13.7145 9.55685 14.1501 9.36745 14.6378 9.23961C15.1303 9.11177 15.6464 9.02181 16.1861 8.96973C16.8206 8.90344 17.332 8.84189 17.7202 8.78507C18.1085 8.72351 18.3902 8.63355 18.5654 8.51518C18.7406 8.39681 18.8282 8.22162 18.8282 7.98961V7.947C18.8282 7.49719 18.6861 7.14918 18.402 6.90296C18.1227 6.65675 17.7249 6.53365 17.2089 6.53365C16.6643 6.53365 16.2311 6.65439 15.9091 6.89586C15.5872 7.13261 15.3741 7.4309 15.2699 7.79075L12.4716 7.56348C12.6137 6.9006 12.893 6.32768 13.3097 5.84473C13.7264 5.35704 14.2638 4.98298 14.9219 4.72257C15.5848 4.45742 16.3518 4.32484 17.2231 4.32484C17.8291 4.32484 18.4091 4.39586 18.9631 4.53791C19.5218 4.67995 20.0166 4.90012 20.4475 5.19842C20.8831 5.49671 21.2264 5.88024 21.4773 6.34899C21.7283 6.813 21.8537 7.36935 21.8537 8.01802V15.376H18.9844V13.8632H18.8992C18.724 14.2041 18.4896 14.5048 18.1961 14.7652C17.9025 15.0209 17.5498 15.2221 17.1378 15.3689C16.7259 15.5109 16.25 15.5819 15.7103 15.5819ZM16.5767 13.4939C17.0218 13.4939 17.4148 13.4063 17.7557 13.2311C18.0966 13.0512 18.3642 12.8097 18.5583 12.5067C18.7524 12.2036 18.8495 11.8604 18.8495 11.4768V10.3192C18.7548 10.3807 18.6246 10.4375 18.4589 10.4896C18.2979 10.537 18.1156 10.5819 17.912 10.6246C17.7084 10.6624 17.5048 10.6979 17.3012 10.7311C17.0976 10.7595 16.9129 10.7855 16.7472 10.8092C16.3921 10.8613 16.082 10.9442 15.8168 11.0578C15.5517 11.1714 15.3457 11.3253 15.1989 11.5194C15.0521 11.7088 14.9787 11.9456 14.9787 12.2297C14.9787 12.6416 15.1279 12.9565 15.4262 13.1743C15.7292 13.3873 16.1127 13.4939 16.5767 13.4939ZM24.201 15.376V4.46689H27.1343V6.37029H27.2479C27.4468 5.69321 27.7806 5.18185 28.2493 4.8362C28.7181 4.48582 29.2579 4.31064 29.8687 4.31064C30.0202 4.31064 30.1835 4.3201 30.3587 4.33904C30.5339 4.35798 30.6878 4.38403 30.8204 4.41717V7.10183C30.6783 7.05921 30.4818 7.02134 30.2309 6.98819C29.9799 6.95505 29.7503 6.93848 29.5419 6.93848C29.0969 6.93848 28.6991 7.03554 28.3488 7.22967C28.0031 7.41906 27.7285 7.68421 27.5249 8.02512C27.326 8.36603 27.2266 8.75903 27.2266 9.2041V15.376H24.201ZM32.3846 15.376V4.46689H35.4102V15.376H32.3846ZM33.9045 3.06064C33.4547 3.06064 33.0688 2.91149 32.7468 2.61319C32.4296 2.31016 32.271 1.94795 32.271 1.52654C32.271 1.10988 32.4296 0.752397 32.7468 0.454102C33.0688 0.151071 33.4547 -0.000444651 33.9045 -0.000444651C34.3543 -0.000444651 34.7379 0.151071 35.0551 0.454102C35.3771 0.752397 35.538 1.10988 35.538 1.52654C35.538 1.94795 35.3771 2.31016 35.0551 2.61319C34.7379 2.91149 34.3543 3.06064 33.9045 3.06064ZM46.9106 7.57768L44.1407 7.74814C44.0933 7.51139 43.9915 7.29832 43.8353 7.10893C43.679 6.9148 43.4731 6.76092 43.2174 6.64728C42.9664 6.52891 42.6658 6.46973 42.3154 6.46973C41.8466 6.46973 41.4513 6.56916 41.1293 6.76802C40.8073 6.96215 40.6464 7.22257 40.6464 7.54927C40.6464 7.80969 40.7505 8.02986 40.9589 8.20978C41.1672 8.38971 41.5247 8.53412 42.0313 8.64302L44.0057 9.04075C45.0663 9.25855 45.8571 9.60893 46.3779 10.0919C46.8987 10.5748 47.1591 11.2093 47.1591 11.9953C47.1591 12.7103 46.9484 13.3376 46.527 13.8774C46.1104 14.4172 45.5375 14.8386 44.8083 15.1416C44.0839 15.4399 43.2482 15.589 42.3012 15.589C40.8571 15.589 39.7065 15.2884 38.8495 14.6871C37.9972 14.081 37.4977 13.2571 37.3509 12.2155L40.3267 12.0592C40.4167 12.4996 40.6345 12.8357 40.9802 13.0677C41.3258 13.295 41.7685 13.4086 42.3083 13.4086C42.8386 13.4086 43.2647 13.3068 43.5867 13.1032C43.9134 12.8949 44.0791 12.6274 44.0839 12.3007C44.0791 12.0261 43.9631 11.8012 43.7358 11.626C43.5086 11.4461 43.1582 11.3087 42.6847 11.214L40.7955 10.8376C39.7302 10.6246 38.9371 10.2552 38.4162 9.72967C37.9001 9.2041 37.6421 8.53412 37.6421 7.71973C37.6421 7.01897 37.8315 6.41528 38.2103 5.90865C38.5938 5.40202 39.1312 5.01139 39.8225 4.73677C40.5185 4.46215 41.3329 4.32484 42.2657 4.32484C43.6435 4.32484 44.7278 4.61603 45.5185 5.19842C46.314 5.78081 46.778 6.57389 46.9106 7.57768ZM54.4177 15.376V0.830522H62.8552V2.0237H55.7458V7.49956H62.4077V8.69274H55.7458V14.1828H62.9972V15.376H54.4177ZM73.3594 6.86035L72.2017 7.18706C72.0881 6.86035 71.9271 6.56442 71.7188 6.29927C71.5105 6.03412 71.2382 5.82342 70.902 5.66717C70.5706 5.51092 70.1587 5.43279 69.6662 5.43279C68.9276 5.43279 68.3215 5.60798 67.8481 5.95836C67.3746 6.30874 67.1378 6.76092 67.1378 7.3149C67.1378 7.78365 67.2988 8.1648 67.6208 8.45836C67.9475 8.74719 68.4494 8.97683 69.1265 9.14728L70.7742 9.55211C71.688 9.77465 72.3722 10.1274 72.8267 10.6104C73.286 11.0933 73.5157 11.6994 73.5157 12.4285C73.5157 13.0441 73.3452 13.5909 73.0043 14.0692C72.6634 14.5474 72.1875 14.9238 71.5767 15.1984C70.9707 15.4683 70.2676 15.6032 69.4674 15.6032C68.402 15.6032 67.5237 15.3641 66.8324 14.8859C66.1411 14.403 65.6984 13.7069 65.5043 12.7979L66.7188 12.4996C66.875 13.1482 67.1804 13.6383 67.635 13.9697C68.0943 14.3012 68.698 14.4669 69.4461 14.4669C70.2841 14.4669 70.9541 14.2799 71.456 13.9058C71.9579 13.527 72.2089 13.0535 72.2089 12.4854C72.2089 12.045 72.0621 11.6757 71.7685 11.3774C71.475 11.0744 71.0299 10.8518 70.4333 10.7098L68.6506 10.2836C67.7036 10.0564 67.0029 9.69653 66.5483 9.2041C66.0938 8.71168 65.8665 8.10088 65.8665 7.37171C65.8665 6.77039 66.0299 6.24245 66.3566 5.78791C66.6833 5.32863 67.1331 4.96878 67.706 4.70836C68.2789 4.44795 68.9323 4.31774 69.6662 4.31774C70.6653 4.31774 71.4631 4.54501 72.0597 4.99956C72.661 5.44937 73.0943 6.06963 73.3594 6.86035ZM80.5451 15.6032C79.5698 15.6032 78.7199 15.3594 77.9954 14.8717C77.2757 14.384 76.717 13.7164 76.3193 12.8689C75.9216 12.0213 75.7227 11.0554 75.7227 9.97115C75.7227 8.8774 75.9239 7.90439 76.3264 7.05211C76.7336 6.19984 77.297 5.53223 78.0167 5.04927C78.7364 4.56158 79.5721 4.31774 80.5238 4.31774C81.253 4.31774 81.9135 4.45978 82.5054 4.74387C83.0972 5.02323 83.5849 5.41859 83.9684 5.92995C84.3567 6.43658 84.6005 7.02844 84.7 7.70552H83.4216C83.289 7.08999 82.9694 6.56442 82.4628 6.12882C81.9609 5.68848 81.3217 5.46831 80.5451 5.46831C79.8491 5.46831 79.2336 5.6577 78.6986 6.03649C78.1635 6.41054 77.7445 6.93374 77.4415 7.60609C77.1432 8.2737 76.994 9.04785 76.994 9.92853C76.994 10.8139 77.1408 11.5976 77.4343 12.2794C77.7279 12.9565 78.1398 13.4868 78.6701 13.8703C79.2052 14.2538 79.8302 14.4456 80.5451 14.4456C81.0281 14.4456 81.4684 14.3556 81.8662 14.1757C82.2686 13.991 82.6048 13.7306 82.8747 13.3944C83.1493 13.0583 83.334 12.6582 83.4287 12.1942H84.7071C84.6124 12.8523 84.378 13.4394 84.004 13.9555C83.6346 14.4669 83.154 14.8693 82.5622 15.1629C81.9751 15.4565 81.3027 15.6032 80.5451 15.6032ZM90.4635 15.6246C89.8053 15.6246 89.204 15.4967 88.6595 15.241C88.115 14.9806 87.6817 14.6066 87.3598 14.1189C87.0378 13.6264 86.8768 13.0299 86.8768 12.3291C86.8768 11.7893 86.9786 11.3348 87.1822 10.9655C87.3858 10.5961 87.6746 10.2931 88.0487 10.0564C88.4227 9.81963 88.8655 9.63261 89.3768 9.49529C89.8882 9.35798 90.4516 9.25145 91.0672 9.17569C91.678 9.09993 92.1941 9.03365 92.6155 8.97683C93.0416 8.92001 93.3659 8.83005 93.5885 8.70694C93.811 8.58384 93.9223 8.38497 93.9223 8.11035V7.85467C93.9223 7.1113 93.6997 6.52654 93.2547 6.10041C92.8143 5.66954 92.1799 5.4541 91.3513 5.4541C90.5653 5.4541 89.9237 5.62692 89.4265 5.97257C88.9341 6.31821 88.5885 6.72541 88.3896 7.19416L87.1893 6.76092C87.4355 6.16433 87.7764 5.68848 88.212 5.33336C88.6477 4.97351 89.1353 4.71547 89.6751 4.55922C90.2149 4.39823 90.7618 4.31774 91.3157 4.31774C91.7324 4.31774 92.1656 4.37219 92.6155 4.48109C93.07 4.58999 93.4914 4.77938 93.8797 5.04927C94.2679 5.31442 94.5828 5.68611 94.8243 6.16433C95.0657 6.63781 95.1865 7.23914 95.1865 7.96831V15.376H93.9223V13.6501H93.8441C93.6926 13.9721 93.4677 14.2846 93.1694 14.5876C92.8711 14.8907 92.4971 15.1392 92.0473 15.3334C91.5975 15.5275 91.0695 15.6246 90.4635 15.6246ZM90.6339 14.4669C91.3063 14.4669 91.8887 14.3177 92.3811 14.0194C92.8735 13.7211 93.2523 13.3258 93.5174 12.8334C93.7873 12.3362 93.9223 11.7893 93.9223 11.1927V9.61603C93.8276 9.706 93.669 9.78649 93.4464 9.85751C93.2286 9.92853 92.9753 9.99245 92.6865 10.0493C92.4024 10.1014 92.1183 10.1463 91.8342 10.1842C91.5501 10.2221 91.2944 10.2552 91.0672 10.2836C90.4516 10.3594 89.9261 10.4778 89.4905 10.6388C89.0549 10.7997 88.721 11.0223 88.489 11.3064C88.257 11.5857 88.141 11.9456 88.141 12.3859C88.141 13.0488 88.3778 13.5625 88.8513 13.9271C89.3247 14.287 89.919 14.4669 90.6339 14.4669ZM98.5494 19.4669V4.46689H99.7781V6.54785H99.9272C100.079 6.22115 100.287 5.88734 100.552 5.54643C100.817 5.20079 101.168 4.90959 101.603 4.67285C102.044 4.43611 102.598 4.31774 103.265 4.31774C104.165 4.31774 104.951 4.55448 105.623 5.02797C106.3 5.49671 106.826 6.15486 107.2 7.0024C107.579 7.8452 107.768 8.82768 107.768 9.94984C107.768 11.0767 107.579 12.0639 107.2 12.9115C106.826 13.759 106.3 14.4195 105.623 14.893C104.951 15.3665 104.17 15.6032 103.28 15.6032C102.621 15.6032 102.07 15.4849 101.625 15.2481C101.184 15.0114 100.827 14.7202 100.552 14.3746C100.282 14.0242 100.074 13.6833 99.9272 13.3518H99.8136V19.4669H98.5494ZM99.7994 9.92853C99.7994 10.8092 99.9296 11.5905 100.19 12.2723C100.455 12.9494 100.834 13.482 101.326 13.8703C101.824 14.2538 102.425 14.4456 103.13 14.4456C103.855 14.4456 104.466 14.2467 104.963 13.849C105.465 13.4465 105.846 12.9044 106.106 12.2226C106.371 11.5407 106.504 10.7761 106.504 9.92853C106.504 9.09047 106.374 8.33526 106.113 7.66291C105.858 6.99056 105.479 6.45789 104.977 6.0649C104.475 5.66717 103.86 5.46831 103.13 5.46831C102.42 5.46831 101.816 5.66007 101.319 6.04359C100.822 6.42238 100.443 6.94795 100.183 7.62029C99.9272 8.28791 99.7994 9.05732 99.7994 9.92853ZM114.952 15.6032C113.934 15.6032 113.053 15.3665 112.31 14.893C111.567 14.4148 110.991 13.7543 110.584 12.9115C110.182 12.0639 109.981 11.0886 109.981 9.98535C109.981 8.88687 110.182 7.91149 110.584 7.05921C110.991 6.20221 111.552 5.53223 112.267 5.04927C112.987 4.56158 113.818 4.31774 114.76 4.31774C115.352 4.31774 115.923 4.42664 116.472 4.64444C117.021 4.85751 117.514 5.18658 117.949 5.63166C118.39 6.072 118.738 6.62834 118.993 7.30069C119.249 7.96831 119.377 8.75903 119.377 9.67285V10.2979H110.854V9.18279H118.084C118.084 8.48204 117.942 7.8523 117.658 7.29359C117.379 6.73014 116.988 6.28507 116.486 5.95836C115.989 5.63166 115.414 5.46831 114.76 5.46831C114.069 5.46831 113.461 5.65296 112.935 6.02228C112.409 6.3916 111.998 6.87929 111.699 7.48535C111.406 8.09141 111.257 8.75429 111.252 9.47399V10.1416C111.252 11.0081 111.401 11.7657 111.699 12.4143C112.002 13.0583 112.431 13.5578 112.985 13.9129C113.539 14.268 114.195 14.4456 114.952 14.4456C115.468 14.4456 115.92 14.3651 116.309 14.2041C116.702 14.0431 117.031 13.8277 117.296 13.5578C117.566 13.2832 117.769 12.9825 117.907 12.6558L119.107 13.0464C118.941 13.5057 118.669 13.9295 118.29 14.3177C117.916 14.706 117.447 15.0185 116.884 15.2552C116.325 15.4872 115.681 15.6032 114.952 15.6032Z" fill="black"/>
</svg>
