<svg width="16" height="16" viewBox="0 0 16 16" fill="none" xmlns="http://www.w3.org/2000/svg">
<path d="M4.625 13.725L4.23125 14.6469C3.64687 14.35 3.10938 13.9844 2.62188 13.5562L3.33125 12.8469C3.72187 13.1875 4.15625 13.4844 4.625 13.725ZM1.00312 8.23438H0C0.04375 8.89688 0.16875 9.5375 0.365625 10.1438L1.29688 9.77188C1.14375 9.28125 1.04062 8.76562 1.00312 8.23438ZM1.00312 7.23438C1.04688 6.64687 1.16562 6.07812 1.35 5.54375L0.428125 5.15C0.19375 5.80625 0.046875 6.50625 0 7.23438H1.00312ZM1.74375 4.625C1.9875 4.15938 2.28125 3.725 2.62188 3.32812L1.9125 2.61875C1.48437 3.10625 1.11562 3.64375 0.821875 4.22813L1.74375 4.625ZM12.1406 12.8469C11.7063 13.2219 11.2219 13.5437 10.7 13.7969L11.0719 14.7281C11.7188 14.4187 12.3156 14.0219 12.85 13.5531L12.1406 12.8469ZM3.32812 2.62188C3.7625 2.24688 4.24688 1.925 4.76875 1.67188L4.39687 0.740625C3.75 1.05 3.15313 1.44688 2.62188 1.91563L3.32812 2.62188ZM13.725 10.8438C13.4813 11.3094 13.1875 11.7437 12.8469 12.1406L13.5562 12.85C13.9844 12.3625 14.3531 11.8219 14.6469 11.2406L13.725 10.8438ZM14.4656 8.23438C14.4219 8.82187 14.3031 9.39062 14.1187 9.925L15.0406 10.3188C15.275 9.65938 15.4219 8.95937 15.4656 8.23125H14.4656V8.23438ZM9.77188 14.1719C9.28125 14.3281 8.76562 14.4281 8.23438 14.4656V15.4688C8.89688 15.425 9.5375 15.3 10.1438 15.1031L9.77188 14.1719ZM7.23438 14.4656C6.64687 14.4219 6.07812 14.3031 5.54375 14.1187L5.15 15.0406C5.80938 15.275 6.50938 15.4219 7.2375 15.4656V14.4656H7.23438ZM14.1719 5.69688C14.3281 6.1875 14.4281 6.70312 14.4656 7.23438H15.4688C15.425 6.57188 15.3 5.93125 15.1031 5.325L14.1719 5.69688ZM2.62188 12.1406C2.24688 11.7063 1.925 11.2219 1.67188 10.7L0.740625 11.0719C1.05 11.7188 1.44688 12.3156 1.91563 12.85L2.62188 12.1406ZM8.23438 1.00312C8.82187 1.04688 9.3875 1.16562 9.925 1.35L10.3188 0.428125C9.6625 0.19375 8.9625 0.046875 8.23438 0V1.00312ZM5.69688 1.29688C6.1875 1.14062 6.70312 1.04062 7.23438 1.00312V0C6.57188 0.04375 5.93125 0.16875 5.325 0.365625L5.69688 1.29688ZM13.5562 2.61875L12.8469 3.32812C13.2219 3.7625 13.5437 4.24688 13.8 4.76875L14.7312 4.39687C14.4219 3.75 14.025 3.15313 13.5562 2.61875ZM12.1406 2.62188L12.85 1.9125C12.3625 1.48437 11.825 1.11562 11.2406 0.821875L10.8469 1.74375C11.3094 1.9875 11.7469 2.28125 12.1406 2.62188Z" fill="#EF4444"/>
<path d="M7.73438 11.9844C8.21762 11.9844 8.60938 11.5926 8.60938 11.1094C8.60938 10.6261 8.21762 10.2344 7.73438 10.2344C7.25113 10.2344 6.85938 10.6261 6.85938 11.1094C6.85938 11.5926 7.25113 11.9844 7.73438 11.9844Z" fill="#EF4444"/>
<path d="M7.97458 9.48438H7.47458C7.26833 9.48438 7.09958 9.31563 7.09958 9.10938C7.09958 6.89062 9.51833 7.1125 9.51833 5.74062C9.51833 5.11562 8.96208 4.48438 7.72458 4.48438C6.81521 4.48438 6.34021 4.78437 5.87458 5.38125C5.75271 5.5375 5.52771 5.56875 5.36833 5.45625L4.95896 5.16875C4.78396 5.04687 4.74333 4.8 4.87771 4.63125C5.54021 3.78125 6.32771 3.23438 7.72771 3.23438C9.36208 3.23438 10.7715 4.16562 10.7715 5.74062C10.7715 7.85312 8.3527 7.725 8.3527 9.10938C8.34958 9.31563 8.18083 9.48438 7.97458 9.48438Z" fill="#EF4444"/>
</svg>
