<svg width="30" height="13" viewBox="0 0 30 13" fill="none" xmlns="http://www.w3.org/2000/svg">
<path d="M7.72969 0.970312L5.7 1.40156L5.69063 8.07656C5.69063 9.30937 6.61875 10.1063 7.85156 10.1063C8.53594 10.1063 9.0375 9.97969 9.31406 9.82969V8.24531C9.04688 8.35312 7.73438 8.7375 7.73438 7.50938V4.54688H9.31406V2.775H7.73438L7.72969 0.970312ZM11.9062 3.38906L11.7797 2.775H9.97969V9.95625H12.0562V5.12344C12.5484 4.47656 13.3781 4.60313 13.6453 4.6875V2.775C13.3641 2.67656 12.3938 2.49375 11.9062 3.38906ZM16.2328 0L14.1422 0.445312V2.14219L16.2328 1.69687V0ZM2.1 4.88906C2.1 4.56563 2.37188 4.43906 2.80781 4.43438C3.44063 4.43438 4.24687 4.62656 4.87969 4.96875V3.00937C4.19062 2.7375 3.50156 2.62969 2.8125 2.62969C1.125 2.62969 0 3.51094 0 4.98281C0 7.28906 3.16406 6.91406 3.16406 7.90781C3.16406 8.29219 2.83125 8.41875 2.36719 8.41875C1.67813 8.41875 0.7875 8.13281 0.0890625 7.75312V9.62812C0.8625 9.96094 1.64531 10.1016 2.3625 10.1016C4.09219 10.1016 5.28281 9.36094 5.28281 7.86094C5.28281 5.38125 2.1 5.82656 2.1 4.88906ZM29.9953 6.45C29.9953 4.31719 28.9641 2.63437 26.9859 2.63437C25.0078 2.63437 23.8031 4.31719 23.8031 6.43594C23.8031 8.94375 25.2234 10.1016 27.2484 10.1016C28.2422 10.1016 28.9875 9.87656 29.5547 9.5625V7.99688C28.9875 8.28281 28.3359 8.45625 27.5109 8.45625C26.7 8.45625 25.9875 8.17031 25.8938 7.19531H29.9672C29.9766 7.0875 29.9953 6.65156 29.9953 6.45ZM25.875 5.6625C25.875 4.725 26.4516 4.33125 26.9719 4.33125C27.4828 4.33125 28.0266 4.725 28.0266 5.6625H25.875ZM20.5828 2.63437C19.7672 2.63437 19.2422 3.01875 18.9516 3.28594L18.8438 2.77031H17.0109V12.3703L19.0922 11.9297L19.0969 9.57656C19.3969 9.79687 19.8422 10.1016 20.5687 10.1016C22.0594 10.1016 23.4188 9.01406 23.4188 6.37031C23.4234 3.95156 22.0453 2.63437 20.5828 2.63437ZM20.0859 8.37656C19.5984 8.37656 19.3078 8.19844 19.1063 7.98281L19.0922 4.88906C19.3078 4.65 19.6078 4.47656 20.0859 4.47656C20.8453 4.47656 21.3703 5.32969 21.3703 6.41719C21.375 7.5375 20.8594 8.37656 20.0859 8.37656ZM14.1469 9.95625H16.2375V2.775H14.1469V9.95625Z" fill="#4F46E5"/>
</svg>
